<svg width="11" height="12" fill="none" xmlns="http://www.w3.org/2000/svg"><path d="M1.157 12a.363.363 0 01-.24-.096.307.307 0 01-.096-.224c0-.075.022-.144.065-.208l3.663-5.168-3.488-4.976a.4.4 0 01-.047-.208.31.31 0 01.095-.224A.307.307 0 011.333.8h.96c.16 0 .304.09.432.272l2.817 4 2.8-4C8.447.891 8.586.8 8.756.8h.912c.086 0 .16.032.224.096a.307.307 0 01.096.224c0 .096-.02.165-.064.208L6.486 6.32l3.648 5.152a.367.367 0 01.065.208c0 .085-.033.16-.097.224a.326.326 0 01-.24.096h-.976c-.16 0-.303-.09-.431-.272L5.476 7.584l-2.96 4.144c-.106.181-.245.272-.415.272h-.944z" fill="#fff"/></svg>